<svg width="200" height="117" viewBox="0 0 200 117" fill="none" xmlns="http://www.w3.org/2000/svg">
<path d="M10.16 108.549C8.50664 108.549 7.07998 108.229 5.87999 107.589C4.70666 106.949 3.74665 106.095 2.99999 105.029V108.229H0V80.2287H2.99999V91.4687C3.74665 90.3753 4.70666 89.5087 5.87999 88.8687C7.07998 88.2287 8.50664 87.9087 10.16 87.9087C12.1066 87.9087 13.8 88.3753 15.24 89.3087C16.7066 90.2153 17.8399 91.4553 18.6399 93.0287C19.4399 94.5753 19.8399 96.3086 19.8399 98.2286C19.8399 100.122 19.4399 101.855 18.6399 103.429C17.8399 105.002 16.7066 106.255 15.24 107.189C13.8 108.095 12.1066 108.549 10.16 108.549ZM9.75997 105.829C11.2533 105.829 12.52 105.482 13.56 104.789C14.6266 104.095 15.44 103.175 16 102.029C16.5599 100.855 16.84 99.5886 16.84 98.2286C16.84 96.842 16.5599 95.5753 16 94.4287C15.44 93.282 14.6266 92.362 13.56 91.6687C12.52 90.9753 11.2533 90.6287 9.75997 90.6287C8.29331 90.6287 7.03998 90.9753 5.99998 91.6687C4.95999 92.362 4.17332 93.282 3.63999 94.4287C3.10666 95.5753 2.83999 96.842 2.83999 98.2286C2.83999 99.5886 3.10666 100.855 3.63999 102.029C4.17332 103.175 4.95999 104.095 5.99998 104.789C7.03998 105.482 8.29331 105.829 9.75997 105.829Z" fill="#081F1E"/>
<path d="M32.4798 108.549C30.4531 108.549 28.6931 108.095 27.1998 107.189C25.7065 106.255 24.5598 105.002 23.7598 103.429C22.9598 101.855 22.5598 100.122 22.5598 98.2287C22.5598 96.3087 22.9598 94.5753 23.7598 93.0287C24.5598 91.4553 25.7065 90.2153 27.1998 89.3087C28.6931 88.3754 30.4531 87.9087 32.4798 87.9087C34.5331 87.9087 36.2931 88.3754 37.7598 89.3087C39.2531 90.2153 40.3998 91.4553 41.1997 93.0287C41.9997 94.5753 42.3997 96.3087 42.3997 98.2287C42.3997 100.122 41.9997 101.855 41.1997 103.429C40.3998 105.002 39.2531 106.255 37.7598 107.189C36.2931 108.095 34.5331 108.549 32.4798 108.549ZM32.4798 105.829C33.9731 105.829 35.2264 105.482 36.2398 104.789C37.2798 104.095 38.0664 103.175 38.5998 102.029C39.1331 100.855 39.3998 99.5886 39.3998 98.2287C39.3998 96.842 39.1331 95.5753 38.5998 94.4287C38.0664 93.282 37.2798 92.362 36.2398 91.6687C35.2264 90.9753 33.9731 90.6287 32.4798 90.6287C31.0131 90.6287 29.7598 90.9753 28.7198 91.6687C27.6798 92.362 26.8931 93.282 26.3598 94.4287C25.8265 95.5753 25.5598 96.842 25.5598 98.2287C25.5598 99.5886 25.8265 100.855 26.3598 102.029C26.8931 103.175 27.6798 104.095 28.7198 104.789C29.7598 105.482 31.0131 105.829 32.4798 105.829Z" fill="#081F1E"/>
<path d="M46.2397 84.8687V80.9487H49.4797V84.8687H46.2397ZM46.3597 116.149V88.2286H49.3597V116.149H46.3597Z" fill="#081F1E"/>
<path d="M62.3598 108.549C60.9998 108.549 59.7065 108.229 58.4799 107.589C57.2532 106.922 56.2532 105.949 55.4799 104.669C54.7332 103.362 54.3599 101.762 54.3599 99.8687V88.2287H57.3599V99.7887C57.3599 101.602 57.8799 103.069 58.9199 104.189C59.9865 105.282 61.3332 105.829 62.9598 105.829C64.0798 105.829 65.0932 105.575 65.9998 105.069C66.9065 104.535 67.6265 103.815 68.1598 102.909C68.7198 102.002 68.9998 100.949 68.9998 99.7487V88.2287H71.9998V108.229H68.9998V105.109C68.2798 106.069 67.3998 106.882 66.3598 107.549C65.3198 108.215 63.9865 108.549 62.3598 108.549Z" fill="#081F1E"/>
<path d="M85.6397 108.549C83.693 108.549 81.9864 108.095 80.5197 107.189C79.0797 106.255 77.9597 105.002 77.1597 103.429C76.3597 101.855 75.9597 100.122 75.9597 98.2287C75.9597 96.3087 76.3597 94.5753 77.1597 93.0287C77.9597 91.4553 79.0797 90.2153 80.5197 89.3087C81.9864 88.3754 83.693 87.9087 85.6397 87.9087C87.293 87.9087 88.7063 88.2287 89.8797 88.8687C91.0797 89.5087 92.053 90.3753 92.7997 91.4687V88.2287H95.7997V108.229H92.7997V105.029C92.053 106.095 91.0797 106.949 89.8797 107.589C88.7063 108.229 87.293 108.549 85.6397 108.549ZM86.0397 105.829C87.533 105.829 88.7863 105.482 89.7997 104.789C90.8397 104.095 91.6263 103.175 92.1597 102.029C92.693 100.855 92.9597 99.5886 92.9597 98.2287C92.9597 96.842 92.693 95.5753 92.1597 94.4287C91.6263 93.282 90.8397 92.362 89.7997 91.6687C88.7863 90.9753 87.533 90.6287 86.0397 90.6287C84.573 90.6287 83.3064 90.9753 82.2397 91.6687C81.173 92.362 80.3597 93.282 79.7997 94.4287C79.2397 95.5753 78.9597 96.842 78.9597 98.2287C78.9597 99.5886 79.2397 100.855 79.7997 102.029C80.3597 103.175 81.173 104.095 82.2397 104.789C83.3064 105.482 84.573 105.829 86.0397 105.829Z" fill="#081F1E"/>
<path d="M101 108.229V88.2287H104V91.3487C104.719 90.3887 105.599 89.5753 106.639 88.9087C107.679 88.242 109.013 87.9087 110.639 87.9087C112.026 87.9087 113.319 88.242 114.519 88.9087C115.746 89.5487 116.733 90.522 117.479 91.8287C118.253 93.1087 118.639 94.6953 118.639 96.5887V108.229H115.639V96.6687C115.639 94.8553 115.119 93.402 114.079 92.3087C113.039 91.1887 111.693 90.6287 110.039 90.6287C108.919 90.6287 107.906 90.882 106.999 91.3887C106.093 91.8953 105.359 92.6153 104.799 93.5487C104.266 94.4553 104 95.5087 104 96.7087V108.229H101Z" fill="#081F1E"/>
<path d="M135.037 80.2947C137.97 80.2947 140.544 80.8681 142.757 82.0147C144.997 83.1614 146.717 84.8014 147.917 86.9347C149.144 89.0414 149.757 91.4947 149.757 94.2947C149.757 97.0947 149.144 99.548 147.917 101.655C146.717 103.735 144.997 105.348 142.757 106.495C140.544 107.641 137.97 108.215 135.037 108.215H125.277V80.2947H135.037ZM134.837 103.455C137.77 103.455 140.037 102.655 141.637 101.055C143.237 99.4547 144.037 97.2014 144.037 94.2947C144.037 91.388 143.237 89.1214 141.637 87.4947C140.037 85.8414 137.77 85.0147 134.837 85.0147H130.877V103.455H134.837Z" fill="#FF4F6E"/>
<path d="M174.557 96.6547C174.557 97.4547 174.504 98.1747 174.397 98.8147H158.197C158.33 100.415 158.89 101.668 159.877 102.575C160.864 103.481 162.077 103.935 163.517 103.935C165.597 103.935 167.077 103.041 167.957 101.255H173.997C173.357 103.388 172.13 105.148 170.317 106.535C168.504 107.895 166.277 108.575 163.637 108.575C161.504 108.575 159.584 108.108 157.877 107.175C156.197 106.215 154.877 104.868 153.917 103.135C152.984 101.401 152.517 99.4013 152.517 97.1347C152.517 94.8413 152.984 92.828 153.917 91.0947C154.85 89.3614 156.157 88.028 157.837 87.0947C159.517 86.1614 161.45 85.6947 163.637 85.6947C165.744 85.6947 167.624 86.148 169.277 87.0547C170.957 87.9614 172.25 89.2547 173.157 90.9347C174.09 92.588 174.557 94.4947 174.557 96.6547ZM168.757 95.0547C168.73 93.6147 168.21 92.468 167.197 91.6147C166.184 90.7347 164.944 90.2947 163.477 90.2947C162.09 90.2947 160.917 90.7213 159.957 91.5747C159.024 92.4013 158.45 93.5613 158.237 95.0547H168.757Z" fill="#FF4F6E"/>
<path d="M187.877 103.055L193.477 86.0547H199.437L191.237 108.215H184.437L176.277 86.0547H182.277L187.877 103.055Z" fill="#FF4F6E"/>
<path d="M125.466 9.34808C125.466 9.34808 126.576 35.7367 98.6731 46.9588C98.6731 46.9588 97.5555 43.9088 94.5614 41.4241C92.0418 39.3331 88.6528 38.5682 88.6528 38.5682C88.6528 38.5682 97.4518 13.501 125.466 9.34808Z" fill="#009DAE"/>
<path d="M91.9342 59.5713C87.4835 63.6519 79.7613 61.3362 73.9646 61.8496C74.8931 55.9003 73.6978 48.0202 77.9886 43.9626C82.3767 39.8131 89.1691 40.068 93.02 44.3783C96.871 48.6885 96.3848 55.4906 91.9342 59.5713Z" fill="#009DAE"/>
<path d="M69.0765 71.2844C66.9696 71.2844 65.009 71.1674 63.1947 70.9333C61.4389 70.6992 59.888 70.1724 58.5419 69.3531C57.1958 68.5922 56.1423 67.3632 55.3815 65.6659C54.6207 63.9687 54.2402 61.6277 54.2402 58.6428V46.0013C54.2402 44.0699 53.8306 42.4897 53.0112 41.2607C52.2504 40.0316 51.3432 39.1245 50.2897 38.5392C49.2363 37.954 48.2413 37.6613 47.3049 37.6613V33.6231C48.2413 33.6231 49.2363 33.3304 50.2897 32.7452C51.3432 32.1599 52.2504 31.2528 53.0112 30.0237C53.8306 28.7947 54.2402 27.2145 54.2402 25.2831V12.6416C54.2402 9.65674 54.6207 7.3157 55.3815 5.61845C56.1423 3.9212 57.1958 2.69217 58.5419 1.93133C59.888 1.11197 61.4389 0.585231 63.1947 0.351127C65.009 0.117036 66.9696 0 69.0765 0V4.74059C65.565 4.79911 63.1654 5.38436 61.8779 6.49637C60.6488 7.54983 60.0343 9.6275 60.0343 12.7294V24.3175C60.0343 27.5949 59.4198 30.1115 58.1907 31.8673C56.9617 33.5646 55.5278 34.8229 53.8891 35.6422C55.5278 36.4031 56.9617 37.6614 58.1907 39.4171C59.4198 41.1729 60.0343 43.6895 60.0343 46.967V58.5551C60.0343 61.5984 60.6488 63.6761 61.8779 64.7881C63.1654 65.9001 65.565 66.4853 69.0765 66.5439V71.2844Z" fill="#009DAE"/>
<path d="M130.36 71.3962V66.6556C133.871 66.5971 136.242 66.0118 137.471 64.8998C138.758 63.7878 139.402 61.7102 139.402 58.6668V47.0787C139.402 43.8013 140.017 41.2847 141.246 39.5289C142.475 37.7731 143.909 36.5148 145.547 35.754C143.909 34.9346 142.475 33.6763 141.246 31.9791C140.017 30.2233 139.402 27.7067 139.402 24.4292V12.8411C139.402 9.73925 138.758 7.66159 137.471 6.60812C136.242 5.49613 133.871 4.91087 130.36 4.85235V0.111755C132.467 0.111755 134.398 0.228802 136.154 0.462895C137.968 0.696986 139.548 1.22372 140.895 2.04309C142.241 2.80393 143.294 4.03296 144.055 5.73021C144.816 7.42745 145.196 9.76849 145.196 12.7533V25.3949C145.196 27.3262 145.577 28.9064 146.337 30.1355C147.157 31.3645 148.093 32.2717 149.147 32.8569C150.259 33.4422 151.254 33.7348 152.131 33.7348V37.7731C151.254 37.7731 150.259 38.0657 149.147 38.651C148.093 39.2362 147.157 40.1434 146.337 41.3724C145.577 42.6015 145.196 44.1817 145.196 46.113V58.7546C145.196 61.7394 144.816 64.0805 144.055 65.7777C143.294 67.475 142.241 68.704 140.895 69.4648C139.548 70.2842 137.968 70.8109 136.154 71.045C134.398 71.2791 132.467 71.3962 130.36 71.3962Z" fill="#009DAE"/>
</svg>
