<?xml version="1.0" encoding="UTF-8" standalone="no"?>
<!-- Created with Inkscape (http://www.inkscape.org/) -->

<svg
   width="48.166882mm"
   height="40.719257mm"
   viewBox="0 0 48.166882 40.719257"
   version="1.1"
   id="svg1"
   sodipodi:docname="our-llacta-logo.svg"
   inkscape:version="1.4 (e7c3feb1, 2024-10-09)"
   xmlns:inkscape="http://www.inkscape.org/namespaces/inkscape"
   xmlns:sodipodi="http://sodipodi.sourceforge.net/DTD/sodipodi-0.dtd"
   xmlns="http://www.w3.org/2000/svg"
   xmlns:svg="http://www.w3.org/2000/svg">
  <sodipodi:namedview
     id="namedview1"
     pagecolor="#ffffff"
     bordercolor="#000000"
     borderopacity="0.25"
     inkscape:showpageshadow="2"
     inkscape:pageopacity="0.0"
     inkscape:pagecheckerboard="0"
     inkscape:deskcolor="#d1d1d1"
     inkscape:document-units="mm"
     inkscape:zoom="2.8284271"
     inkscape:cx="129.57732"
     inkscape:cy="80.786949"
     inkscape:window-width="1936"
     inkscape:window-height="1186"
     inkscape:window-x="2365"
     inkscape:window-y="124"
     inkscape:window-maximized="0"
     inkscape:current-layer="g32" />
  <defs
     id="defs1">
    <rect
       x="224.17018"
       y="255.32037"
       width="121.81953"
       height="42.831524"
       id="rect9" />
  </defs>
  <g
     inkscape:label="Layer 1"
     inkscape:groupmode="layer"
     id="layer1"
     transform="translate(-51.121299,-36.519955)">
    <g
       id="g32"
       inkscape:label="group"
       style="display:inline"
       inkscape:export-filename="logo.png"
       inkscape:export-xdpi="96"
       inkscape:export-ydpi="96">
      <g
         id="g18"
         style="fill:#ffcc00" />
      <g
         id="g19"
         transform="matrix(-1,0,0,1,150.40948,0.04139309)"
         style="fill:#ffcc00" />
      <g
         id="g30"
         style="display:inline">
        <path
           id="path19"
           style="fill:#db121a;fill-opacity:1;stroke-width:0.519435"
           inkscape:transform-center-x="-0.13979114"
           inkscape:transform-center-y="-0.6730235"
           d="m 75.310648,36.519955 -7.16907,7.13393 2.538346,11.437027 a 29.87661,29.876611 1.4786841 0 1 4.526855,-0.39429 29.87661,29.876611 1.4786841 0 1 4.289661,0.344683 l 2.807063,-11.384319 z"
           inkscape:export-filename="logo.png"
           inkscape:export-xdpi="96"
           inkscape:export-ydpi="96" />
        <path
           id="path20"
           style="display:inline;fill:#333333;stroke-width:0.264583"
           d="m 75.206779,55.043669 a 29.87661,29.87661 0 0 0 -18.278471,6.33398 l 2.579171,4.467427 a 24.777241,24.777241 0 0 1 15.6993,-5.701977 24.777241,24.777241 0 0 1 15.731856,5.645133 l 2.578137,-4.46536 A 29.87661,29.87661 0 0 0 75.206779,55.043669 Z"
           inkscape:label="base" />
        <path
           id="path21"
           style="display:inline;fill:#fbdd09;fill-opacity:1;stroke-width:0.40232"
           inkscape:transform-center-x="-0.41023595"
           inkscape:transform-center-y="-0.13952252"
           d="m 52.913545,44.934386 -1.792246,6.476803 5.66322,9.66866 c 1.473942,-1.150988 3.052695,-2.161044 4.715475,-3.01687 l -2.544031,-9.937378 z"
           sodipodi:nodetypes="cccccc" />
        <path
           id="path22"
           style="display:inline;fill:#ff7f2a;fill-opacity:1;stroke-width:0.519435"
           inkscape:transform-center-x="0.37013986"
           inkscape:transform-center-y="-0.033634"
           d="m 60.93891,39.622842 -1.597317,8.398705 2.563451,9.850179 c 1.359487,-0.672802 2.768238,-1.241093 4.214032,-1.699945 1.377016,-0.408607 2.781706,-0.717378 4.20314,-0.923913 L 67.852845,43.849236 Z"
           sodipodi:nodetypes="ccccccc" />
        <path
           id="path23"
           style="fill:#fbdd09;fill-opacity:1;stroke-width:0.40232"
           inkscape:transform-center-x="-0.41023595"
           inkscape:transform-center-y="-0.13952252"
           d="m 52.913545,44.934386 -1.792246,6.476803 5.66322,9.66866 c 1.473942,-1.150988 3.052695,-2.161044 4.715475,-3.01687 l -2.544031,-9.937378 z"
           sodipodi:nodetypes="cccccc"
           transform="matrix(-1,0,0,1,150.40948,0.04139309)" />
        <path
           id="path24"
           style="fill:#ff6600;fill-opacity:1;stroke-width:0.519435"
           inkscape:transform-center-x="0.37013986"
           inkscape:transform-center-y="-0.033634"
           d="m 60.93891,39.622842 -1.701386,8.450739 2.524425,9.824162 c 1.359487,-0.672802 2.911333,-1.26711 4.357127,-1.725962 1.377016,-0.408607 3.054886,-0.899498 4.47632,-1.106033 L 67.852845,43.849236 Z"
           sodipodi:nodetypes="ccccccc"
           transform="matrix(-1,0,0,1,150.40948,0.04139309)" />
        <g
           id="g29"
           inkscape:label="colors"
           style="display:inline"
           transform="matrix(1.032365,0,0,1,-2.4480451,0.07441406)">
          <path
             id="path25"
             style="display:inline;fill:#ec7710;fill-opacity:1;stroke-width:0.369028"
             d="M 60.02321,65.789266 A 24.021342,49.932952 0 0 0 75.169572,77.164799 24.021342,49.932952 0 0 0 90.420837,65.789266 h -0.0016 -0.0088 A 24.021342,11.674944 0 0 1 75.164921,68.446985 24.021342,11.674944 0 0 1 60.024243,65.789266 Z m 30.398661,0 0.0021,0.0083 v -0.0083 z" />
          <path
             id="path26"
             style="display:inline;fill:#752c64;fill-opacity:1;stroke-width:0.345038"
             d="m 90.421871,65.788749 0.0021,0.0078 v -0.0078 z m -30.398661,5.17e-4 a 24.021342,43.651815 0 0 0 15.146362,9.944096 24.021342,43.651815 0 0 0 15.251265,-9.944096 h -0.0016 -0.0088 A 24.021342,11.674944 0 0 1 75.164921,68.446985 24.021342,11.674944 0 0 1 60.024243,65.789266 Z" />
          <path
             id="path27"
             style="display:inline;fill:#0e47ae;fill-opacity:1;stroke-width:0.319738"
             d="m 60.02321,65.789266 a 24.021342,37.48486 0 0 0 15.146362,8.53953 24.021342,37.48486 0 0 0 15.251265,-8.53953 h -0.0016 -0.0088 A 24.021342,11.674944 0 0 1 75.164921,68.446985 24.021342,11.674944 0 0 1 60.024243,65.789266 Z m 30.398661,0 0.0021,0.0062 v -0.0062 z" />
          <path
             id="path28"
             style="display:inline;fill:#fbdd09;fill-opacity:1;stroke-width:0.281949"
             d="m 60.02321,65.789266 a 24.021342,29.14802 0 0 0 15.146362,6.639905 24.021342,29.14802 0 0 0 15.251265,-6.639905 h -0.0016 -0.0088 A 24.021342,11.674944 0 0 1 75.164921,68.446985 24.021342,11.674944 0 0 1 60.024243,65.789266 Z m 30.398661,0 0.0021,0.0047 v -0.0047 z" />
          <path
             id="path29"
             style="display:inline;fill:#07892f;fill-opacity:1;stroke-width:0.230262"
             d="m 90.421871,65.788749 0.0021,0.0036 v -0.0036 z m -30.398661,5.17e-4 a 24.021342,19.440807 0 0 0 15.146362,4.42867 24.021342,19.440807 0 0 0 15.251265,-4.42867 h -0.0016 -0.0088 A 24.021342,11.674944 0 0 1 75.164921,68.446985 24.021342,11.674944 0 0 1 60.024243,65.789266 Z" />
        </g>
      </g>
    </g>
  </g>
</svg>
